<?xml version="1.0" encoding="utf-8"?>
<!-- Generator: Adobe Illustrator 21.1.0, SVG Export Plug-In . SVG Version: 6.00 Build 0)  -->
<svg version="1.1" xmlns="http://www.w3.org/2000/svg" xmlns:xlink="http://www.w3.org/1999/xlink" x="0px" y="0px"
	 viewBox="0 0 1132 264" style="enable-background:new 0 0 1132 264;" xml:space="preserve">
<style type="text/css">
	.st0{fill:#E00097;}
	.st1{fill:#012A5E;}
	.st2{fill:#333333;}
</style>
<g id="Color">
</g>
<g id="BW">
	<g>
		<path class="st2" d="M447.7-0.3l11.9,126.9c1.2,7.5,1.8,15.1,1.8,22.8c0,7.5,0.2,15,0.7,22.4h0.7c2.6-7.7,4.9-15.4,7-23
			c2.1-7.6,4.8-15.3,8.1-23L529.4-0.3h54.7L469.8,264.1H427L391.6-0.3H447.7z"/>
		<path class="st2" d="M90.7-0.3l40.3,159.5l1.1-0.7c-0.2-1.9-0.4-3.9-0.5-6c-0.1-2.1-0.2-4.2-0.2-6.3c0-4.7,0.2-9.3,0.7-13.8
			c0.5-4.6,1.1-9.2,1.8-13.8L152.5-0.3h52.2l-41,264.4h-49.4L74.6,104.5l-1.1,0.7l-1.8,26.6l-1.1,10.9L51.8,264.1H-0.4l41-264.4
			H90.7z"/>
		<path class="st2" d="M823.5-0.3L789.9,215h54.7l-7.4,49.1H730.3l41-264.4H823.5z"/>
		<path class="st2" d="M954.3-0.3l-41,264.4H861l41-264.4H954.3z"/>
		<path class="st2" d="M1076,264.1L1064,137.1c-1.2-7.5-1.8-15.1-1.8-22.8c0-7.5-0.2-15-0.7-22.4h-0.7c-2.6,7.7-4.9,15.4-7,23
			c-2.1,7.6-4.8,15.3-8.1,23l-51.5,126.2h-54.7L1053.9-0.3h42.8l35.4,264.4H1076z"/>
		<path class="st2" d="M325,264.1L313,137.1c-1.2-7.5-1.8-15.1-1.8-22.8c0-7.5-0.2-15-0.7-22.4h-0.7c-2.6,7.7-4.9,15.4-7,23
			c-2.1,7.6-4.8,15.3-8.1,23l-51.5,126.2h-54.7L302.9-0.3h42.8l35.4,264.4H325z"/>
		<path class="st2" d="M653,264.1L641,137.1c-1.2-7.5-1.8-15.1-1.8-22.8c0-7.5-0.2-15-0.7-22.4h-0.7c-2.6,7.7-4.9,15.4-7,23
			c-2.1,7.6-4.8,15.3-8.1,23l-51.5,126.2h-54.7L630.9-0.3h42.8l35.4,264.4H653z"/>
	</g>
</g>
</svg>
